<svg id="Слой_1" data-name="Слой 1" xmlns="http://www.w3.org/2000/svg" xmlns:xlink="http://www.w3.org/1999/xlink" viewBox="0 0 1920 1080"><defs><style>.cls-1{fill:#f2f2f2;}.cls-2{fill:url(#Безымянный_градиент_5);}.cls-3{fill:url(#Безымянный_градиент_11);}.cls-4{fill:url(#Безымянный_градиент_12);}.cls-5{fill:url(#Безымянный_градиент_13);}.cls-6{fill:url(#Безымянный_градиент_14);}.cls-7{fill:url(#Безымянный_градиент_19);}.cls-8{fill:red;}.cls-13,.cls-9{fill:blue;}.cls-10{fill:#ff0;}.cls-11{fill:url(#Безымянный_градиент_16);}.cls-12{fill:url(#Безымянный_градиент_17);}.cls-13{font-size:200px;font-family:Bauhaus;}</style><linearGradient id="Безымянный_градиент_5" x1="959.67" y1="212.24" x2="959.4" y2="111.38" gradientUnits="userSpaceOnUse"><stop offset="0" stop-color="#f2f2f2"/><stop offset="0.1" stop-color="#e4e4f3"/><stop offset="0.27" stop-color="#c0c0f5"/><stop offset="0.52" stop-color="#8686f8"/><stop offset="0.81" stop-color="#3636fc"/><stop offset="1" stop-color="blue"/></linearGradient><linearGradient id="Безымянный_градиент_11" x1="1066.48" y1="212.24" x2="1066.21" y2="111.38" gradientTransform="translate(0 -26.7)" gradientUnits="userSpaceOnUse"><stop offset="0" stop-color="#f2f2f2"/><stop offset="0.1" stop-color="#f3f3e4"/><stop offset="0.27" stop-color="#f5f5c0"/><stop offset="0.52" stop-color="#f8f886"/><stop offset="0.81" stop-color="#fcfc36"/><stop offset="1" stop-color="#ff0"/></linearGradient><linearGradient id="Безымянный_градиент_12" x1="1173.29" y1="212.24" x2="1173.02" y2="111.38" gradientUnits="userSpaceOnUse"><stop offset="0" stop-color="#f2f2f2"/><stop offset="0.1" stop-color="#f3e4e4"/><stop offset="0.27" stop-color="#f5c0c0"/><stop offset="0.52" stop-color="#f88686"/><stop offset="0.81" stop-color="#fc3636"/><stop offset="1" stop-color="red"/></linearGradient><linearGradient id="Безымянный_градиент_13" x1="1280.09" y1="212.24" x2="1279.82" y2="111.38" gradientTransform="translate(0 -26.7)" xlink:href="#Безымянный_градиент_5"/><linearGradient id="Безымянный_градиент_14" x1="1386.9" y1="212.24" x2="1386.63" y2="111.38" gradientTransform="matrix(1, 0, 0, 1, 0, 0)" xlink:href="#Безымянный_градиент_11"/><linearGradient id="Безымянный_градиент_19" x1="1825.31" y1="989.27" x2="1527.75" y2="681.82" gradientTransform="translate(2572.14 -840) rotate(90)" xlink:href="#Безымянный_градиент_11"/><linearGradient id="Безымянный_градиент_16" x1="7.12" y1="1041.91" x2="333.96" y2="764.01" xlink:href="#Безымянный_градиент_12"/><linearGradient id="Безымянный_градиент_17" x1="35.5" y1="13.78" x2="320.22" y2="333.16" gradientTransform="translate(0 427.86) rotate(-90)" xlink:href="#Безымянный_градиент_5"/></defs><rect class="cls-1" width="1920" height="1080"/><rect class="cls-2" x="932.8" y="80.48" width="53.4" height="133.46"/><rect class="cls-3" x="1039.6" y="53.77" width="53.4" height="133.46" transform="translate(2132.61 241) rotate(180)"/><rect class="cls-4" x="1146.41" y="80.48" width="53.4" height="133.46"/><rect class="cls-5" x="1253.22" y="53.77" width="53.4" height="133.46" transform="translate(2559.84 241) rotate(180)"/><rect class="cls-6" x="1360.02" y="80.48" width="53.4" height="133.46"/><path class="cls-7" d="M1492.14,652.14h107A320.9,320.9,0,0,1,1920,973v107a0,0,0,0,1,0,0H1502.14a10,10,0,0,1-10-10V652.14a0,0,0,0,1,0,0Z" transform="translate(840 2572.14) rotate(-90)"/><circle class="cls-8" cx="959.5" cy="80.48" r="26.7"/><circle class="cls-9" cx="1066.31" cy="187.23" r="26.7"/><circle class="cls-10" cx="1173.11" cy="80.48" r="26.7"/><circle class="cls-8" cx="1279.92" cy="187.23" r="26.7"/><circle class="cls-9" cx="1386.73" cy="80.48" r="26.7"/><polygon class="cls-9" points="1774.69 181.85 1817.99 106.86 1731.39 106.86 1774.69 181.85"/><polygon class="cls-8" points="1774.69 333.21 1817.99 258.21 1731.39 258.21 1774.69 333.21"/><polygon class="cls-9" points="1774.69 484.56 1817.99 409.56 1731.39 409.56 1774.69 484.56"/><polygon class="cls-10" points="1774.69 635.92 1817.99 560.92 1731.39 560.92 1774.69 635.92"/><polygon class="cls-9" points="1774.69 787.27 1817.99 712.27 1731.39 712.27 1774.69 787.27"/><polygon class="cls-8" points="1774.69 938.63 1817.99 863.63 1731.39 863.63 1774.69 938.63"/><path class="cls-11" d="M0,652.14H107A320.9,320.9,0,0,1,427.86,973v107a0,0,0,0,1,0,0H10a10,10,0,0,1-10-10V652.14a0,0,0,0,1,0,0Z"/><path class="cls-12" d="M0,0H107a320.9,320.9,0,0,1,320.9,320.9v107a0,0,0,0,1,0,0H10a10,10,0,0,1-10-10V0A0,0,0,0,1,0,0Z" transform="translate(427.86 0) rotate(90)"/><text class="cls-13" transform="translate(427.86 585.92)">NOTE<tspan class="cls-8" x="478.91" y="0">BOOK</tspan></text></svg>